Open Antique Tuscan Condensed-1.ufo
<glyph name="slash" format="1">
  <advance width="500"/>
  <unicode hex="002F"/>
  <note>
    skew is 15
  </note>
  <outline>
    <contour>
      <point x="20" y="0" type="line"/>
      <point x="25" y="20"/>
      <point x="48" y="30"/>
      <point x="140" y="375" type="curve"/>
      <point x="232" y="720"/>
      <point x="215" y="730"/>
      <point x="220" y="750" type="curve"/>
      <point x="420" y="750" type="line"/>
      <point x="415" y="730"/>
      <point x="392" y="720"/>
      <point x="300" y="375" type="curve"/>
      <point x="208" y="31"/>
      <point x="225" y="20"/>
      <point x="220" y="0" type="curve"/>
    </contour>
  </outline>
</glyph>
<glyph name="two" format="1">
  <advance width="700"/>
  <unicode hex="0032"/>
  <outline>
    <contour>
      <point x="620" y="210" type="curve"/>
      <point x="570" y="210"/>
      <point x="500" y="150"/>
      <point x="350" y="150" type="curve"/>
      <point x="350" y="200"/>
      <point x="570" y="400"/>
      <point x="620" y="400" type="curve"/>
      <point x="620" y="420"/>
      <point x="610" y="430"/>
      <point x="610" y="500" type="curve"/>
      <point x="610" y="570"/>
      <point x="620" y="580"/>
      <point x="620" y="600" type="curve"/>
      <point x="570" y="600"/>
      <point x="470" y="700"/>
      <point x="470" y="750" type="curve"/>
      <point x="170" y="750" type="line"/>
      <point x="170" y="700"/>
      <point x="70" y="650"/>
      <point x="20" y="650" type="curve"/>
      <point x="20" y="630"/>
      <point x="30" y="620"/>
      <point x="30" y="565" type="curve"/>
      <point x="30" y="510"/>
      <point x="20" y="500"/>
      <point x="20" y="480" type="curve"/>
      <point x="40" y="480"/>
      <point x="50" y="490"/>
      <point x="120" y="490" type="curve"/>
      <point x="190" y="490"/>
      <point x="200" y="480"/>
      <point x="220" y="480" type="curve"/>
      <point x="220" y="500"/>
      <point x="210" y="510"/>
      <point x="210" y="545" type="curve"/>
      <point x="210" y="580"/>
      <point x="240" y="610"/>
      <point x="290" y="610" type="curve"/>
      <point x="340" y="610"/>
      <point x="370" y="580"/>
      <point x="370" y="525" type="curve"/>
      <point x="370" y="400"/>
      <point x="70" y="150"/>
      <point x="20" y="150" type="curve"/>
      <point x="20" y="130"/>
      <point x="30" y="119"/>
      <point x="30" y="75" type="curve"/>
      <point x="30" y="30"/>
      <point x="20" y="20"/>
      <point x="20" y="0" type="curve"/>
      <point x="620" y="0" type="line"/>
      <point x="620" y="20"/>
      <point x="610" y="30"/>
      <point x="610" y="110" type="curve"/>
      <point x="610" y="180"/>
      <point x="620" y="190"/>
    </contour>
  </outline>
</glyph>
<glyph name="A" format="1">
  <advance width="980"/>
  <unicode hex="0041"/>
  <outline>
    <contour>
      <point x="330" y="650"/>
      <point x="150" y="140"/>
      <point x="50" y="140" type="curve" smooth="yes"/>
      <point x="20" y="140"/>
      <point x="10" y="150"/>
      <point x="0" y="150" type="curve"/>
      <point x="0" y="130"/>
      <point x="10" y="120"/>
      <point x="10" y="75" type="curve" smooth="yes"/>
      <point x="10" y="30"/>
      <point x="0" y="20"/>
      <point x="0" y="0" type="curve"/>
      <point x="400" y="0" type="line"/>
      <point x="400" y="20"/>
      <point x="390" y="30"/>
      <point x="390" y="75" type="curve" smooth="yes"/>
      <point x="390" y="120"/>
      <point x="400" y="130"/>
      <point x="400" y="150" type="curve"/>
      <point x="390" y="150"/>
      <point x="380" y="140"/>
      <point x="350" y="140" type="curve" smooth="yes"/>
      <point x="330" y="140"/>
      <point x="320" y="160"/>
      <point x="320" y="180" type="curve" smooth="yes"/>
      <point x="320" y="220"/>
      <point x="355" y="260"/>
      <point x="430" y="260" type="curve" smooth="yes"/>
      <point x="505" y="260"/>
      <point x="535" y="220"/>
      <point x="535" y="180" type="curve" smooth="yes"/>
      <point x="535" y="160"/>
      <point x="520" y="140"/>
      <point x="500" y="140" type="curve" smooth="yes"/>
      <point x="470" y="140"/>
      <point x="460" y="150"/>
      <point x="450" y="150" type="curve"/>
      <point x="450" y="130"/>
      <point x="460" y="120"/>
      <point x="460" y="75" type="curve" smooth="yes"/>
      <point x="460" y="30"/>
      <point x="450" y="20"/>
      <point x="450" y="0" type="curve"/>
      <point x="900" y="0" type="line"/>
      <point x="900" y="20"/>
      <point x="890" y="30"/>
      <point x="890" y="75" type="curve" smooth="yes"/>
      <point x="890" y="120"/>
      <point x="900" y="130"/>
      <point x="900" y="150" type="curve"/>
      <point x="890" y="150"/>
      <point x="880" y="140"/>
      <point x="850" y="140" type="curve" smooth="yes"/>
      <point x="750" y="140"/>
      <point x="620" y="650"/>
      <point x="620" y="750" type="curve"/>
      <point x="330" y="750" type="line"/>
    </contour>
    <contour>
      <point x="400" y="340"/>
      <point x="385" y="355"/>
      <point x="385" y="380" type="curve" smooth="yes"/>
      <point x="385" y="430"/>
      <point x="435" y="495"/>
      <point x="440" y="495" type="curve" smooth="yes"/>
      <point x="445" y="495"/>
      <point x="479" y="440"/>
      <point x="479" y="390" type="curve" smooth="yes"/>
      <point x="479" y="365"/>
      <point x="470" y="340"/>
      <point x="430" y="340" type="curve" smooth="yes"/>
    </contour>
  </outline>
</glyph>
<glyph name="B" format="1">
  <advance width="850"/>
  <unicode hex="0042"/>
  <outline>
    <contour>
      <point x="620" y="0" type="line"/>
      <point x="620" y="50"/>
      <point x="720" y="150"/>
      <point x="770" y="150" type="curve"/>
      <point x="770" y="170"/>
      <point x="760" y="180"/>
      <point x="760" y="225" type="curve" smooth="yes"/>
      <point x="760" y="270"/>
      <point x="770" y="280"/>
      <point x="770" y="300" type="curve"/>
      <point x="720" y="300"/>
      <point x="620" y="365"/>
      <point x="620" y="375" type="curve" smooth="yes"/>
      <point x="620" y="385"/>
      <point x="720" y="450"/>
      <point x="770" y="450" type="curve"/>
      <point x="770" y="470"/>
      <point x="760" y="480"/>
      <point x="760" y="525" type="curve" smooth="yes"/>
      <point x="760" y="570"/>
      <point x="770" y="580"/>
      <point x="770" y="600" type="curve"/>
      <point x="720" y="600"/>
      <point x="620" y="700"/>
      <point x="620" y="750" type="curve"/>
      <point x="20" y="750" type="line"/>
      <point x="20" y="730"/>
      <point x="30" y="720"/>
      <point x="30" y="675" type="curve" smooth="yes"/>
      <point x="30" y="630"/>
      <point x="20" y="620"/>
      <point x="20" y="600" type="curve"/>
      <point x="30" y="600"/>
      <point x="40" y="610"/>
      <point x="70" y="610" type="curve" smooth="yes"/>
      <point x="120" y="610"/>
      <point x="140" y="480"/>
      <point x="140" y="375" type="curve" smooth="yes"/>
      <point x="140" y="270"/>
      <point x="120" y="140"/>
      <point x="70" y="140" type="curve" smooth="yes"/>
      <point x="40" y="140"/>
      <point x="30" y="150"/>
      <point x="20" y="150" type="curve"/>
      <point x="20" y="130"/>
      <point x="30" y="120"/>
      <point x="30" y="75" type="curve" smooth="yes"/>
      <point x="30" y="30"/>
      <point x="20" y="20"/>
      <point x="20" y="0" type="curve"/>
    </contour>
    <contour>
      <point x="400" y="150"/>
      <point x="353" y="200"/>
      <point x="353" y="310" type="curve"/>
      <point x="400" y="310" type="line" smooth="yes"/>
      <point x="520" y="310"/>
      <point x="545" y="250"/>
      <point x="545" y="215" type="curve" smooth="yes"/>
      <point x="545" y="180"/>
      <point x="520" y="150"/>
      <point x="470" y="150" type="curve" smooth="yes"/>
    </contour>
    <contour>
      <point x="353" y="550"/>
      <point x="400" y="600"/>
      <point x="470" y="600" type="curve" smooth="yes"/>
      <point x="520" y="600"/>
      <point x="545" y="570"/>
      <point x="545" y="535" type="curve" smooth="yes"/>
      <point x="545" y="500"/>
      <point x="520" y="440"/>
      <point x="400" y="440" type="curve" smooth="yes"/>
      <point x="353" y="440" type="line"/>
    </contour>
  </outline>
</glyph>
<glyph name="F" format="1">
  <advance width="850"/>
  <unicode hex="0046"/>
  <outline>
    <contour>
      <point x="470" y="0" type="line"/>
      <point x="470" y="20"/>
      <point x="460" y="30"/>
      <point x="460" y="75" type="curve"/>
      <point x="460" y="120"/>
      <point x="470" y="130"/>
      <point x="470" y="150" type="curve"/>
      <point x="460" y="150"/>
      <point x="450" y="140"/>
      <point x="420" y="140" type="curve" smooth="yes"/>
      <point x="370" y="140"/>
      <point x="350" y="200"/>
      <point x="350" y="290" type="curve" smooth="yes"/>
      <point x="350" y="330"/>
      <point x="370" y="360"/>
      <point x="390" y="360" type="curve"/>
      <point x="410" y="360"/>
      <point x="430" y="350"/>
      <point x="430" y="315" type="curve"/>
      <point x="430" y="295"/>
      <point x="420" y="285"/>
      <point x="420" y="275" type="curve"/>
      <point x="430" y="275"/>
      <point x="440" y="285"/>
      <point x="470" y="285" type="curve"/>
      <point x="500" y="285"/>
      <point x="510" y="275"/>
      <point x="520" y="275" type="curve"/>
      <point x="520" y="295"/>
      <point x="510" y="305"/>
      <point x="510" y="400" type="curve"/>
      <point x="510" y="495"/>
      <point x="520" y="505"/>
      <point x="520" y="525" type="curve"/>
      <point x="510" y="525"/>
      <point x="500" y="515"/>
      <point x="470" y="515" type="curve"/>
      <point x="440" y="515"/>
      <point x="430" y="525"/>
      <point x="420" y="525" type="curve"/>
      <point x="420" y="515"/>
      <point x="430" y="505"/>
      <point x="430" y="485" type="curve"/>
      <point x="430" y="450"/>
      <point x="410" y="440"/>
      <point x="390" y="440" type="curve"/>
      <point x="370" y="440"/>
      <point x="350" y="460"/>
      <point x="350" y="500" type="curve" smooth="yes"/>
      <point x="350" y="560"/>
      <point x="390" y="610"/>
      <point x="470" y="610" type="curve"/>
      <point x="550" y="610"/>
      <point x="580" y="570"/>
      <point x="580" y="520" type="curve" smooth="yes"/>
      <point x="580" y="480"/>
      <point x="570" y="470"/>
      <point x="570" y="450" type="curve"/>
      <point x="590" y="450"/>
      <point x="602" y="460"/>
      <point x="672" y="460" type="curve"/>
      <point x="742" y="460"/>
      <point x="750" y="450"/>
      <point x="770" y="450" type="curve"/>
      <point x="770" y="470"/>
      <point x="760" y="480"/>
      <point x="760" y="600" type="curve" smooth="yes"/>
      <point x="760" y="720"/>
      <point x="770" y="730"/>
      <point x="770" y="750" type="curve"/>
      <point x="20" y="750" type="line"/>
      <point x="20" y="730"/>
      <point x="30" y="720"/>
      <point x="30" y="675" type="curve" smooth="yes"/>
      <point x="30" y="630"/>
      <point x="20" y="620"/>
      <point x="20" y="600" type="curve"/>
      <point x="30" y="600"/>
      <point x="40" y="610"/>
      <point x="70" y="610" type="curve"/>
      <point x="120" y="610"/>
      <point x="140" y="480"/>
      <point x="140" y="375" type="curve"/>
      <point x="140" y="270"/>
      <point x="120" y="140"/>
      <point x="70" y="140" type="curve"/>
      <point x="40" y="140"/>
      <point x="30" y="150"/>
      <point x="20" y="150" type="curve"/>
      <point x="20" y="130"/>
      <point x="30" y="120"/>
      <point x="30" y="75" type="curve" smooth="yes"/>
      <point x="30" y="30"/>
      <point x="20" y="20"/>
      <point x="20" y="0" type="curve"/>
    </contour>
  </outline>
</glyph>
<glyph name="K" format="1">
  <advance width="1030"/>
  <unicode hex="004B"/>
  <outline>
    <contour>
      <point x="360" y="0" type="line"/>
      <point x="360" y="20"/>
      <point x="350" y="25"/>
      <point x="350" y="75" type="curve" smooth="yes"/>
      <point x="350" y="125"/>
      <point x="360" y="130"/>
      <point x="360" y="150" type="curve"/>
      <point x="350" y="150"/>
      <point x="340" y="140"/>
      <point x="320" y="140" type="curve"/>
      <point x="285" y="140"/>
      <point x="275" y="240"/>
      <point x="275" y="250" type="curve"/>
      <point x="305" y="250"/>
      <point x="365" y="305"/>
      <point x="375" y="305" type="curve"/>
      <point x="385" y="305"/>
      <point x="475" y="220"/>
      <point x="475" y="170" type="curve" smooth="yes"/>
      <point x="475" y="150"/>
      <point x="460" y="140"/>
      <point x="450" y="140" type="curve"/>
      <point x="430" y="140"/>
      <point x="420" y="150"/>
      <point x="410" y="150" type="curve"/>
      <point x="410" y="130"/>
      <point x="420" y="126"/>
      <point x="420" y="75" type="curve" smooth="yes"/>
      <point x="420" y="25"/>
      <point x="410" y="20"/>
      <point x="410" y="0" type="curve"/>
      <point x="800" y="0" type="line"/>
      <point x="800" y="20"/>
      <point x="790" y="25"/>
      <point x="790" y="75" type="curve" smooth="yes"/>
      <point x="790" y="125"/>
      <point x="800" y="130"/>
      <point x="800" y="150" type="curve"/>
      <point x="790" y="150"/>
      <point x="780" y="140"/>
      <point x="760" y="140" type="curve"/>
      <point x="710" y="140"/>
      <point x="520" y="320"/>
      <point x="520" y="420" type="curve"/>
      <point x="520" y="440"/>
      <point x="680" y="610"/>
      <point x="730" y="610" type="curve"/>
      <point x="750" y="610"/>
      <point x="760" y="600"/>
      <point x="770" y="600" type="curve"/>
      <point x="770" y="620"/>
      <point x="760" y="625"/>
      <point x="760" y="675" type="curve" smooth="yes"/>
      <point x="760" y="725"/>
      <point x="770" y="730"/>
      <point x="770" y="750" type="curve"/>
      <point x="410" y="750" type="line"/>
      <point x="410" y="730"/>
      <point x="420" y="725"/>
      <point x="420" y="675" type="curve" smooth="yes"/>
      <point x="420" y="624"/>
      <point x="410" y="620"/>
      <point x="410" y="600" type="curve"/>
      <point x="420" y="600"/>
      <point x="430" y="610"/>
      <point x="450" y="610" type="curve"/>
      <point x="460" y="610"/>
      <point x="475" y="600"/>
      <point x="475" y="580" type="curve" smooth="yes"/>
      <point x="475" y="530"/>
      <point x="320" y="385"/>
      <point x="270" y="385" type="curve"/>
      <point x="270" y="480"/>
      <point x="280" y="610"/>
      <point x="320" y="610" type="curve"/>
      <point x="340" y="610"/>
      <point x="350" y="600"/>
      <point x="360" y="600" type="curve"/>
      <point x="360" y="620"/>
      <point x="350" y="625"/>
      <point x="350" y="675" type="curve" smooth="yes"/>
      <point x="350" y="725"/>
      <point x="360" y="730"/>
      <point x="360" y="750" type="curve"/>
      <point x="0" y="750" type="line"/>
      <point x="0" y="730"/>
      <point x="10" y="725"/>
      <point x="10" y="675" type="curve" smooth="yes"/>
      <point x="10" y="624"/>
      <point x="0" y="620"/>
      <point x="0" y="600" type="curve"/>
      <point x="10" y="600"/>
      <point x="20" y="610"/>
      <point x="40" y="610" type="curve"/>
      <point x="80" y="610"/>
      <point x="90" y="480"/>
      <point x="90" y="375" type="curve"/>
      <point x="90" y="270"/>
      <point x="80" y="140"/>
      <point x="40" y="140" type="curve"/>
      <point x="20" y="140"/>
      <point x="10" y="150"/>
      <point x="0" y="150" type="curve"/>
      <point x="0" y="130"/>
      <point x="10" y="126"/>
      <point x="10" y="75" type="curve" smooth="yes"/>
      <point x="10" y="25"/>
      <point x="0" y="20"/>
      <point x="0" y="0" type="curve"/>
    </contour>
  </outline>
</glyph>
<glyph name="L" format="1">
  <advance width="600"/>
  <unicode hex="004C"/>
  <outline>
    <contour>
      <point x="0" y="0" type="curve"/>
      <point x="600" y="0" type="line"/>
      <point x="600" y="20"/>
      <point x="590" y="30"/>
      <point x="590" y="150" type="curve"/>
      <point x="590" y="270"/>
      <point x="600" y="280"/>
      <point x="600" y="300" type="curve"/>
      <point x="580" y="300"/>
      <point x="570" y="290"/>
      <point x="505" y="290" type="curve" smooth="yes"/>
      <point x="440" y="290"/>
      <point x="440" y="300"/>
      <point x="420" y="300" type="curve"/>
      <point x="420" y="280"/>
      <point x="430" y="270"/>
      <point x="430" y="225" type="curve" smooth="yes"/>
      <point x="430" y="170"/>
      <point x="410" y="140"/>
      <point x="360" y="140" type="curve"/>
      <point x="280" y="140"/>
      <point x="270" y="270"/>
      <point x="270" y="375" type="curve"/>
      <point x="270" y="480"/>
      <point x="280" y="610"/>
      <point x="320" y="610" type="curve"/>
      <point x="340" y="610"/>
      <point x="350" y="600"/>
      <point x="360" y="600" type="curve"/>
      <point x="360" y="620"/>
      <point x="350" y="625"/>
      <point x="350" y="675" type="curve" smooth="yes"/>
      <point x="350" y="725"/>
      <point x="360" y="730"/>
      <point x="360" y="750" type="curve"/>
      <point x="0" y="750" type="line"/>
      <point x="0" y="730"/>
      <point x="10" y="725"/>
      <point x="10" y="675" type="curve" smooth="yes"/>
      <point x="10" y="624"/>
      <point x="0" y="620"/>
      <point x="0" y="600" type="curve"/>
      <point x="10" y="600"/>
      <point x="20" y="610"/>
      <point x="40" y="610" type="curve"/>
      <point x="80" y="610"/>
      <point x="90" y="480"/>
      <point x="90" y="375" type="curve"/>
      <point x="90" y="270"/>
      <point x="80" y="140"/>
      <point x="40" y="140" type="curve"/>
      <point x="20" y="140"/>
      <point x="10" y="150"/>
      <point x="0" y="150" type="curve"/>
      <point x="0" y="130"/>
      <point x="10" y="126"/>
      <point x="10" y="75" type="curve" smooth="yes"/>
      <point x="10" y="25"/>
      <point x="0" y="20"/>
    </contour>
  </outline>
</glyph>
<glyph name="P" format="1">
  <advance width="850"/>
  <unicode hex="0050"/>
  <outline>
    <contour>
      <point x="460" y="75" type="curve" smooth="yes"/>
      <point x="460" y="120"/>
      <point x="470" y="130"/>
      <point x="470" y="150" type="curve"/>
      <point x="460" y="150"/>
      <point x="450" y="140"/>
      <point x="420" y="140" type="curve"/>
      <point x="370" y="140"/>
      <point x="354" y="275"/>
      <point x="354" y="300" type="curve"/>
      <point x="374" y="300"/>
      <point x="384" y="310"/>
      <point x="487" y="310" type="curve"/>
      <point x="590" y="310"/>
      <point x="600" y="300"/>
      <point x="620" y="300" type="curve"/>
      <point x="620" y="350"/>
      <point x="720" y="450"/>
      <point x="770" y="450" type="curve"/>
      <point x="770" y="470"/>
      <point x="760" y="480"/>
      <point x="760" y="525" type="curve"/>
      <point x="760" y="570"/>
      <point x="770" y="580"/>
      <point x="770" y="600" type="curve"/>
      <point x="720" y="600"/>
      <point x="620" y="700"/>
      <point x="620" y="750" type="curve"/>
      <point x="20" y="750" type="line"/>
      <point x="20" y="730"/>
      <point x="30" y="720"/>
      <point x="30" y="675" type="curve" smooth="yes"/>
      <point x="30" y="630"/>
      <point x="20" y="620"/>
      <point x="20" y="600" type="curve"/>
      <point x="30" y="600"/>
      <point x="40" y="610"/>
      <point x="70" y="610" type="curve"/>
      <point x="120" y="610"/>
      <point x="140" y="480"/>
      <point x="140" y="375" type="curve"/>
      <point x="140" y="270"/>
      <point x="120" y="140"/>
      <point x="70" y="140" type="curve"/>
      <point x="40" y="140"/>
      <point x="30" y="150"/>
      <point x="20" y="150" type="curve"/>
      <point x="20" y="130"/>
      <point x="30" y="120"/>
      <point x="30" y="75" type="curve" smooth="yes"/>
      <point x="30" y="30"/>
      <point x="20" y="20"/>
      <point x="20" y="0" type="curve"/>
      <point x="470" y="0" type="line"/>
      <point x="470" y="20"/>
      <point x="460" y="30"/>
    </contour>
    <contour>
      <point x="353" y="440" type="line"/>
      <point x="353" y="550"/>
      <point x="400" y="600"/>
      <point x="470" y="600" type="curve" smooth="yes"/>
      <point x="520" y="600"/>
      <point x="545" y="570"/>
      <point x="545" y="535" type="curve" smooth="yes"/>
      <point x="545" y="500"/>
      <point x="520" y="440"/>
      <point x="400" y="440" type="curve"/>
    </contour>
  </outline>
</glyph>
<glyph name="S" format="1">
  <advance width="800"/>
  <unicode hex="0053"/>
  <outline>
    <contour>
      <point x="20" y="600" type="curve"/>
      <point x="70" y="600"/>
      <point x="220" y="700"/>
      <point x="220" y="751" type="curve"/>
      <point x="220" y="750" type="line"/>
      <point x="420" y="750" type="line"/>
      <point x="420" y="730"/>
      <point x="460" y="680"/>
      <point x="470" y="680" type="curve"/>
      <point x="480" y="680"/>
      <point x="520" y="730"/>
      <point x="520" y="750" type="curve"/>
      <point x="670" y="750" type="line"/>
      <point x="670" y="720"/>
      <point x="660" y="700"/>
      <point x="660" y="640" type="curve"/>
      <point x="660" y="580"/>
      <point x="670" y="560"/>
      <point x="670" y="530" type="curve"/>
      <point x="640" y="530"/>
      <point x="630" y="540"/>
      <point x="570" y="540" type="curve"/>
      <point x="510" y="540"/>
      <point x="500" y="530"/>
      <point x="470" y="530" type="curve"/>
      <point x="470" y="560"/>
      <point x="450" y="600"/>
      <point x="370" y="600" type="curve"/>
      <point x="290" y="600"/>
      <point x="260" y="565"/>
      <point x="260" y="535" type="curve"/>
      <point x="260" y="505"/>
      <point x="290" y="470"/>
      <point x="395" y="470" type="curve"/>
      <point x="485" y="470"/>
      <point x="490" y="480"/>
      <point x="520" y="480" type="curve"/>
      <point x="520" y="430"/>
      <point x="670" y="350"/>
      <point x="720" y="350" type="curve"/>
      <point x="720" y="320"/>
      <point x="710" y="310"/>
      <point x="710" y="250" type="curve" smooth="yes"/>
      <point x="710" y="190"/>
      <point x="720" y="180"/>
      <point x="720" y="150" type="curve"/>
      <point x="670" y="150"/>
      <point x="520" y="50"/>
      <point x="520" y="0" type="curve"/>
      <point x="270" y="0" type="line"/>
      <point x="270" y="20"/>
      <point x="230" y="70"/>
      <point x="220" y="70" type="curve"/>
      <point x="210" y="70"/>
      <point x="170" y="20"/>
      <point x="170" y="0" type="curve"/>
      <point x="20" y="0" type="line"/>
      <point x="20" y="30"/>
      <point x="30" y="50"/>
      <point x="30" y="110" type="curve"/>
      <point x="30" y="170"/>
      <point x="20" y="190"/>
      <point x="20" y="220" type="curve"/>
      <point x="50" y="220"/>
      <point x="60" y="210"/>
      <point x="120" y="210" type="curve"/>
      <point x="180" y="210"/>
      <point x="190" y="220"/>
      <point x="220" y="220" type="curve"/>
      <point x="220" y="190"/>
      <point x="240" y="150"/>
      <point x="345" y="150" type="curve"/>
      <point x="450" y="150"/>
      <point x="480" y="185"/>
      <point x="480" y="215" type="curve"/>
      <point x="480" y="245"/>
      <point x="450" y="280"/>
      <point x="345" y="280" type="curve"/>
      <point x="255" y="280"/>
      <point x="250" y="270"/>
      <point x="220" y="270" type="curve"/>
      <point x="220" y="320"/>
      <point x="70" y="400"/>
      <point x="20" y="400" type="curve"/>
      <point x="20" y="430"/>
      <point x="30" y="440"/>
      <point x="30" y="500" type="curve"/>
      <point x="30" y="560"/>
      <point x="20" y="570"/>
    </contour>
  </outline>
</glyph>
<glyph name="Y" format="1">
  <advance width="950"/>
  <unicode hex="0059"/>
  <outline>
    <contour>
      <point x="335" y="269"/>
      <point x="320" y="140"/>
      <point x="270" y="140" type="curve"/>
      <point x="240" y="140"/>
      <point x="230" y="150"/>
      <point x="220" y="150" type="curve"/>
      <point x="220" y="130"/>
      <point x="230" y="125"/>
      <point x="230" y="75" type="curve"/>
      <point x="230" y="25"/>
      <point x="220" y="20"/>
      <point x="220" y="0" type="curve"/>
      <point x="670" y="0" type="line"/>
      <point x="670" y="20"/>
      <point x="660" y="25"/>
      <point x="660" y="75" type="curve"/>
      <point x="660" y="125"/>
      <point x="670" y="130"/>
      <point x="670" y="150" type="curve"/>
      <point x="660" y="150"/>
      <point x="650" y="140"/>
      <point x="620" y="140" type="curve"/>
      <point x="570" y="140"/>
      <point x="555" y="270"/>
      <point x="555" y="300" type="curve"/>
      <point x="555" y="370"/>
      <point x="720" y="610"/>
      <point x="820" y="610" type="curve"/>
      <point x="850" y="610"/>
      <point x="860" y="600"/>
      <point x="870" y="600" type="curve"/>
      <point x="870" y="620"/>
      <point x="860" y="625"/>
      <point x="860" y="675" type="curve"/>
      <point x="860" y="725"/>
      <point x="870" y="730"/>
      <point x="870" y="750" type="curve"/>
      <point x="520" y="750" type="line"/>
      <point x="520" y="730"/>
      <point x="530" y="725"/>
      <point x="530" y="675" type="curve"/>
      <point x="530" y="625"/>
      <point x="520" y="620"/>
      <point x="520" y="600" type="curve"/>
      <point x="530" y="600"/>
      <point x="540" y="610"/>
      <point x="570" y="610" type="curve" smooth="yes"/>
      <point x="580" y="610"/>
      <point x="590" y="600"/>
      <point x="590" y="590" type="curve"/>
      <point x="590" y="550"/>
      <point x="505" y="450"/>
      <point x="495" y="450" type="curve"/>
      <point x="485" y="450"/>
      <point x="400" y="550"/>
      <point x="400" y="590" type="curve"/>
      <point x="400" y="600"/>
      <point x="410" y="610"/>
      <point x="420" y="610" type="curve"/>
      <point x="450" y="610"/>
      <point x="460" y="600"/>
      <point x="470" y="600" type="curve"/>
      <point x="470" y="620"/>
      <point x="460" y="625"/>
      <point x="460" y="675" type="curve"/>
      <point x="460" y="725"/>
      <point x="470" y="730"/>
      <point x="470" y="750" type="curve"/>
      <point x="20" y="750" type="line"/>
      <point x="20" y="730"/>
      <point x="30" y="725"/>
      <point x="30" y="675" type="curve"/>
      <point x="30" y="625"/>
      <point x="20" y="620"/>
      <point x="20" y="600" type="curve"/>
      <point x="30" y="600"/>
      <point x="40" y="610"/>
      <point x="70" y="610" type="curve"/>
      <point x="170" y="610"/>
      <point x="335" y="370"/>
      <point x="335" y="300" type="curve"/>
    </contour>
  </outline>
</glyph>
<glyph name="backslash" format="1">
  <advance width="500"/>
  <unicode hex="005C"/>
  <note>
    skew is 15
  </note>
  <outline>
    <contour>
      <point x="420" y="0" type="curve"/>
      <point x="220" y="0" type="line"/>
      <point x="215" y="20"/>
      <point x="232" y="31"/>
      <point x="140" y="375" type="curve"/>
      <point x="48" y="720"/>
      <point x="25" y="730"/>
      <point x="20" y="750" type="curve"/>
      <point x="220" y="750" type="line"/>
      <point x="225" y="730"/>
      <point x="208" y="720"/>
      <point x="300" y="375" type="curve"/>
      <point x="392" y="30"/>
      <point x="415" y="20"/>
    </contour>
  </outline>
</glyph>
<glyph name="bracketright" format="1">
  <advance width="400"/>
  <unicode hex="005D"/>
  <outline>
    <contour>
      <point x="320" y="-50" type="line"/>
      <point x="320" y="0"/>
      <point x="300" y="10"/>
      <point x="300" y="375" type="curve"/>
      <point x="300" y="740"/>
      <point x="320" y="750"/>
      <point x="320" y="800" type="curve"/>
      <point x="20" y="800" type="line"/>
      <point x="20" y="780"/>
      <point x="30" y="770"/>
      <point x="30" y="725" type="curve" smooth="yes"/>
      <point x="30" y="680"/>
      <point x="20" y="670"/>
      <point x="20" y="650" type="curve"/>
      <point x="30" y="650"/>
      <point x="40" y="660"/>
      <point x="70" y="660" type="curve"/>
      <point x="120" y="660"/>
      <point x="140" y="480"/>
      <point x="140" y="375" type="curve"/>
      <point x="140" y="270"/>
      <point x="120" y="90"/>
      <point x="70" y="90" type="curve"/>
      <point x="40" y="90"/>
      <point x="30" y="100"/>
      <point x="20" y="100" type="curve"/>
      <point x="20" y="80"/>
      <point x="30" y="70"/>
      <point x="30" y="25" type="curve" smooth="yes"/>
      <point x="30" y="-20"/>
      <point x="20" y="-30"/>
      <point x="20" y="-50" type="curve"/>
    </contour>
  </outline>
</glyph>
<glyph name="q" format="1">
  <advance width="750"/>
  <unicode hex="0071"/>
  <outline>
    <contour>
      <point x="590" y="600" type="curve"/>
      <point x="420" y="600" type="line"/>
      <point x="420" y="580"/>
      <point x="390" y="540"/>
      <point x="380" y="540" type="curve"/>
      <point x="370" y="540"/>
      <point x="340" y="580"/>
      <point x="340" y="600" type="curve"/>
      <point x="170" y="600" type="line"/>
      <point x="170" y="550"/>
      <point x="70" y="450"/>
      <point x="20" y="450" type="curve"/>
      <point x="20" y="430"/>
      <point x="40" y="420"/>
      <point x="40" y="300" type="curve"/>
      <point x="40" y="180"/>
      <point x="20" y="170"/>
      <point x="20" y="150" type="curve"/>
      <point x="70" y="150"/>
      <point x="170" y="50"/>
      <point x="170" y="0" type="curve"/>
      <point x="320" y="0" type="line"/>
      <point x="320" y="20"/>
      <point x="360" y="60"/>
      <point x="380" y="60" type="curve"/>
      <point x="380" y="0"/>
      <point x="370" y="-60"/>
      <point x="320" y="-60" type="curve"/>
      <point x="290" y="-60"/>
      <point x="280" y="-50"/>
      <point x="270" y="-50" type="curve"/>
      <point x="270" y="-70"/>
      <point x="280" y="-80"/>
      <point x="280" y="-125" type="curve" smooth="yes"/>
      <point x="280" y="-170"/>
      <point x="270" y="-180"/>
      <point x="270" y="-200" type="curve"/>
      <point x="670" y="-200" type="line"/>
      <point x="670" y="-180"/>
      <point x="660" y="-170"/>
      <point x="660" y="-125" type="curve"/>
      <point x="660" y="-80"/>
      <point x="670" y="-70"/>
      <point x="670" y="-50" type="curve"/>
      <point x="660" y="-50"/>
      <point x="650" y="-60"/>
      <point x="620" y="-60" type="curve"/>
      <point x="570" y="-60"/>
      <point x="550" y="100"/>
      <point x="550" y="300" type="curve"/>
      <point x="550" y="500"/>
      <point x="590" y="580"/>
    </contour>
    <contour>
      <point x="295" y="480" type="curve"/>
      <point x="350" y="480"/>
      <point x="380" y="440"/>
      <point x="380" y="300" type="curve"/>
      <point x="380" y="160"/>
      <point x="350" y="120"/>
      <point x="295" y="120" type="curve"/>
      <point x="240" y="120"/>
      <point x="210" y="160"/>
      <point x="210" y="300" type="curve"/>
      <point x="210" y="440"/>
      <point x="240" y="480"/>
    </contour>
  </outline>
</glyph>
<glyph name="r" format="1">
  <advance width="700"/>
  <unicode hex="0072"/>
  <outline>
    <contour>
      <point x="420" y="0" type="line"/>
      <point x="420" y="20"/>
      <point x="410" y="30"/>
      <point x="410" y="75" type="curve" smooth="yes"/>
      <point x="410" y="120"/>
      <point x="420" y="131"/>
      <point x="420" y="150" type="curve"/>
      <point x="410" y="150"/>
      <point x="400" y="140"/>
      <point x="370" y="140" type="curve" smooth="yes"/>
      <point x="320" y="140"/>
      <point x="300" y="200"/>
      <point x="300" y="300" type="curve" smooth="yes"/>
      <point x="300" y="450"/>
      <point x="350" y="480"/>
      <point x="400" y="480" type="curve"/>
      <point x="450" y="480"/>
      <point x="480" y="450"/>
      <point x="480" y="415" type="curve" smooth="yes"/>
      <point x="480" y="380"/>
      <point x="470" y="370"/>
      <point x="470" y="350" type="curve"/>
      <point x="490" y="350"/>
      <point x="501" y="360"/>
      <point x="545" y="360" type="curve"/>
      <point x="590" y="360"/>
      <point x="600" y="350"/>
      <point x="620" y="350" type="curve"/>
      <point x="620" y="370"/>
      <point x="610" y="380"/>
      <point x="610" y="425" type="curve"/>
      <point x="610" y="470"/>
      <point x="620" y="480"/>
      <point x="620" y="500" type="curve"/>
      <point x="570" y="500"/>
      <point x="520" y="550"/>
      <point x="520" y="600" type="curve"/>
      <point x="350" y="600" type="line"/>
      <point x="350" y="580"/>
      <point x="320" y="540"/>
      <point x="310" y="540" type="curve"/>
      <point x="300" y="540"/>
      <point x="270" y="580"/>
      <point x="270" y="600" type="curve"/>
      <point x="20" y="600" type="line"/>
      <point x="20" y="580"/>
      <point x="30" y="570"/>
      <point x="30" y="525" type="curve"/>
      <point x="30" y="480"/>
      <point x="20" y="470"/>
      <point x="20" y="450" type="curve"/>
      <point x="30" y="450"/>
      <point x="40" y="460"/>
      <point x="70" y="460" type="curve"/>
      <point x="120" y="460"/>
      <point x="140" y="400"/>
      <point x="140" y="300" type="curve"/>
      <point x="140" y="200"/>
      <point x="120" y="140"/>
      <point x="70" y="140" type="curve" smooth="yes"/>
      <point x="40" y="140"/>
      <point x="30" y="150"/>
      <point x="20" y="150" type="curve"/>
      <point x="20" y="130"/>
      <point x="30" y="120"/>
      <point x="30" y="75" type="curve" smooth="yes"/>
      <point x="30" y="30"/>
      <point x="20" y="20"/>
      <point x="20" y="0" type="curve"/>
    </contour>
  </outline>
</glyph>
<glyph name="w" format="1">
  <advance width="1050"/>
  <unicode hex="0077"/>
  <outline>
    <contour>
      <point x="520" y="210" type="curve"/>
      <point x="530" y="210"/>
      <point x="570" y="100"/>
      <point x="570" y="0" type="curve"/>
      <point x="591" y="0"/>
      <point x="683" y="0"/>
      <point x="720" y="0" type="curve"/>
      <point x="720" y="50"/>
      <point x="820" y="460"/>
      <point x="920" y="460" type="curve"/>
      <point x="950" y="460"/>
      <point x="960" y="450"/>
      <point x="970" y="450" type="curve"/>
      <point x="970" y="470"/>
      <point x="960" y="480"/>
      <point x="960" y="525" type="curve"/>
      <point x="960" y="570"/>
      <point x="970" y="580"/>
      <point x="970" y="600" type="curve"/>
      <point x="670" y="600" type="line"/>
      <point x="670" y="580"/>
      <point x="680" y="570"/>
      <point x="680" y="525" type="curve"/>
      <point x="680" y="480"/>
      <point x="670" y="470"/>
      <point x="670" y="450" type="curve"/>
      <point x="680" y="450"/>
      <point x="690" y="460"/>
      <point x="700" y="460" type="curve"/>
      <point x="710" y="460"/>
      <point x="720" y="450"/>
      <point x="720" y="440" type="curve" smooth="yes"/>
      <point x="720" y="350"/>
      <point x="663" y="250"/>
      <point x="655" y="250" type="curve"/>
      <point x="635" y="250"/>
      <point x="570" y="500"/>
      <point x="570" y="600" type="curve"/>
      <point x="470" y="600" type="line"/>
      <point x="470" y="500"/>
      <point x="405" y="250"/>
      <point x="385" y="250" type="curve"/>
      <point x="377" y="250"/>
      <point x="320" y="350"/>
      <point x="320" y="440" type="curve" smooth="yes"/>
      <point x="320" y="450"/>
      <point x="330" y="460"/>
      <point x="340" y="460" type="curve"/>
      <point x="350" y="460"/>
      <point x="360" y="450"/>
      <point x="370" y="450" type="curve"/>
      <point x="370" y="470"/>
      <point x="360" y="480"/>
      <point x="360" y="525" type="curve"/>
      <point x="360" y="570"/>
      <point x="370" y="580"/>
      <point x="370" y="600" type="curve"/>
      <point x="20" y="600" type="line"/>
      <point x="20" y="580"/>
      <point x="30" y="570"/>
      <point x="30" y="525" type="curve"/>
      <point x="30" y="480"/>
      <point x="20" y="470"/>
      <point x="20" y="450" type="curve"/>
      <point x="30" y="450"/>
      <point x="40" y="460"/>
      <point x="70" y="460" type="curve"/>
      <point x="170" y="460"/>
      <point x="270" y="51"/>
      <point x="270" y="0" type="curve"/>
      <point x="470" y="0" type="line"/>
      <point x="470" y="100"/>
      <point x="510" y="210"/>
    </contour>
  </outline>
</glyph>
<glyph name="y" format="1">
  <advance width="800"/>
  <unicode hex="0079"/>
  <outline>
    <contour>
      <point x="480" y="0" type="curve"/>
      <point x="480" y="20"/>
      <point x="470" y="30"/>
      <point x="470" y="75" type="curve"/>
      <point x="470" y="200"/>
      <point x="600" y="460"/>
      <point x="670" y="460" type="curve"/>
      <point x="700" y="460"/>
      <point x="710" y="450"/>
      <point x="720" y="450" type="curve"/>
      <point x="720" y="470"/>
      <point x="710" y="480"/>
      <point x="710" y="525" type="curve"/>
      <point x="710" y="570"/>
      <point x="721" y="580"/>
      <point x="720" y="600" type="curve"/>
      <point x="420" y="600" type="line"/>
      <point x="420" y="580"/>
      <point x="430" y="570"/>
      <point x="430" y="525" type="curve"/>
      <point x="430" y="480"/>
      <point x="420" y="470"/>
      <point x="420" y="450" type="curve"/>
      <point x="430" y="450"/>
      <point x="440" y="460"/>
      <point x="450" y="460" type="curve"/>
      <point x="460" y="460"/>
      <point x="470" y="450"/>
      <point x="470" y="440" type="curve" smooth="yes"/>
      <point x="470" y="400"/>
      <point x="403" y="290"/>
      <point x="395" y="290" type="curve"/>
      <point x="385" y="290"/>
      <point x="320" y="400"/>
      <point x="320" y="440" type="curve" smooth="yes"/>
      <point x="320" y="450"/>
      <point x="330" y="460"/>
      <point x="340" y="460" type="curve"/>
      <point x="350" y="460"/>
      <point x="360" y="450"/>
      <point x="370" y="450" type="curve"/>
      <point x="370" y="470"/>
      <point x="360" y="480"/>
      <point x="360" y="525" type="curve"/>
      <point x="360" y="570"/>
      <point x="370" y="580"/>
      <point x="370" y="600" type="curve"/>
      <point x="20" y="600" type="line"/>
      <point x="20" y="580"/>
      <point x="30" y="570"/>
      <point x="30" y="525" type="curve"/>
      <point x="30" y="480"/>
      <point x="20" y="470"/>
      <point x="20" y="450" type="curve"/>
      <point x="30" y="450"/>
      <point x="40" y="460"/>
      <point x="70" y="460" type="curve"/>
      <point x="140" y="460"/>
      <point x="280" y="200"/>
      <point x="280" y="75" type="curve"/>
      <point x="280" y="30"/>
      <point x="270" y="-10"/>
      <point x="220" y="-10" type="curve"/>
      <point x="190" y="-10"/>
      <point x="180" y="0"/>
      <point x="170" y="0" type="curve"/>
      <point x="170" y="-20"/>
      <point x="180" y="-30"/>
      <point x="180" y="-75" type="curve"/>
      <point x="180" y="-120"/>
      <point x="170" y="-130"/>
      <point x="170" y="-150" type="curve"/>
      <point x="220" y="-150"/>
      <point x="341" y="-150"/>
      <point x="370" y="-150" type="curve"/>
      <point x="370" y="-100"/>
      <point x="430" y="0"/>
    </contour>
  </outline>
</glyph>
<glyph name="currency" format="1">
  <advance width="700"/>
  <unicode hex="00A4"/>
  <outline>
    <contour>
      <point x="514" y="0" type="curve"/>
      <point x="528" y="14"/>
      <point x="528" y="28"/>
      <point x="560" y="60" type="curve"/>
      <point x="592" y="92"/>
      <point x="606" y="92"/>
      <point x="620" y="106" type="curve"/>
      <point x="611" y="115"/>
      <point x="576" y="145"/>
      <point x="513" y="203" type="curve"/>
      <point x="535" y="220"/>
      <point x="556" y="230"/>
      <point x="570" y="230" type="curve"/>
      <point x="570" y="250"/>
      <point x="560" y="260"/>
      <point x="560" y="300" type="curve"/>
      <point x="560" y="340"/>
      <point x="570" y="350"/>
      <point x="570" y="370" type="curve"/>
      <point x="556" y="370"/>
      <point x="535" y="381"/>
      <point x="512" y="397" type="curve"/>
      <point x="600" y="481"/>
      <point x="610" y="484"/>
      <point x="620" y="494" type="curve"/>
      <point x="606" y="508"/>
      <point x="592" y="508"/>
      <point x="560" y="540" type="curve"/>
      <point x="528" y="572"/>
      <point x="528" y="586"/>
      <point x="514" y="600" type="curve"/>
      <point x="504" y="590"/>
      <point x="501" y="580"/>
      <point x="417" y="492" type="curve"/>
      <point x="401" y="515"/>
      <point x="390" y="536"/>
      <point x="390" y="550" type="curve"/>
      <point x="250" y="550" type="line"/>
      <point x="250" y="536"/>
      <point x="239" y="515"/>
      <point x="223" y="492" type="curve"/>
      <point x="139" y="580"/>
      <point x="136" y="590"/>
      <point x="126" y="600" type="curve"/>
      <point x="112" y="586"/>
      <point x="112" y="572"/>
      <point x="80" y="540" type="curve"/>
      <point x="48" y="508"/>
      <point x="34" y="508"/>
      <point x="20" y="494" type="curve"/>
      <point x="30" y="484"/>
      <point x="40" y="481"/>
      <point x="128" y="397" type="curve"/>
      <point x="105" y="381"/>
      <point x="84" y="370"/>
      <point x="70" y="370" type="curve"/>
      <point x="70" y="350"/>
      <point x="80" y="340"/>
      <point x="80" y="300" type="curve"/>
      <point x="80" y="260"/>
      <point x="70" y="250"/>
      <point x="70" y="230" type="curve"/>
      <point x="84" y="230"/>
      <point x="105" y="220"/>
      <point x="127" y="203" type="curve"/>
      <point x="64" y="145"/>
      <point x="29" y="115"/>
      <point x="20" y="106" type="curve"/>
      <point x="34" y="92"/>
      <point x="48" y="92"/>
      <point x="80" y="60" type="curve"/>
      <point x="112" y="28"/>
      <point x="112" y="14"/>
      <point x="126" y="0" type="curve"/>
      <point x="135" y="9"/>
      <point x="165" y="44"/>
      <point x="223" y="107" type="curve"/>
      <point x="240" y="85"/>
      <point x="250" y="64"/>
      <point x="250" y="50" type="curve"/>
      <point x="390" y="50" type="line"/>
      <point x="390" y="64"/>
      <point x="400" y="85"/>
      <point x="417" y="107" type="curve"/>
      <point x="475" y="44"/>
      <point x="505" y="9"/>
    </contour>
    <contour>
      <point x="270" y="215"/>
      <point x="245" y="250"/>
      <point x="245" y="300" type="curve"/>
      <point x="245" y="350"/>
      <point x="270" y="385"/>
      <point x="320" y="385" type="curve"/>
      <point x="370" y="385"/>
      <point x="395" y="350"/>
      <point x="395" y="300" type="curve"/>
      <point x="395" y="250"/>
      <point x="370" y="215"/>
      <point x="320" y="215" type="curve"/>
    </contour>
  </outline>
</glyph>
<glyph name="registered" format="1">
  <advance width="750"/>
  <unicode hex="00AE"/>
  <outline>
    <contour>
      <point x="550" y="100"/>
      <point x="620" y="150"/>
      <point x="670" y="150" type="curve"/>
      <point x="670" y="170"/>
      <point x="660" y="180"/>
      <point x="660" y="350" type="curve" smooth="yes"/>
      <point x="660" y="520"/>
      <point x="670" y="530"/>
      <point x="670" y="550" type="curve"/>
      <point x="620" y="550"/>
      <point x="550" y="600"/>
      <point x="550" y="650" type="curve"/>
      <point x="530" y="650"/>
      <point x="495" y="640"/>
      <point x="345" y="640" type="curve"/>
      <point x="195" y="640"/>
      <point x="160" y="650"/>
      <point x="140" y="650" type="curve"/>
      <point x="140" y="600"/>
      <point x="70" y="550"/>
      <point x="20" y="550" type="curve"/>
      <point x="20" y="530"/>
      <point x="30" y="520"/>
      <point x="30" y="350" type="curve"/>
      <point x="30" y="180"/>
      <point x="20" y="170"/>
      <point x="20" y="150" type="curve"/>
      <point x="70" y="150"/>
      <point x="140" y="101"/>
      <point x="140" y="50" type="curve"/>
      <point x="160" y="50"/>
      <point x="170" y="60"/>
      <point x="345" y="60" type="curve"/>
      <point x="520" y="60"/>
      <point x="530" y="50"/>
      <point x="550" y="50" type="curve"/>
    </contour>
    <contour>
      <point x="345" y="140" type="curve"/>
      <point x="140" y="140"/>
      <point x="110" y="170"/>
      <point x="110" y="351" type="curve"/>
      <point x="110" y="530"/>
      <point x="140" y="560"/>
      <point x="345" y="560" type="curve"/>
      <point x="550" y="560"/>
      <point x="580" y="529"/>
      <point x="580" y="350" type="curve"/>
      <point x="580" y="170"/>
      <point x="550" y="140"/>
    </contour>
    <contour>
      <point x="351" y="230" type="curve" smooth="yes"/>
      <point x="351" y="250"/>
      <point x="355" y="252"/>
      <point x="355" y="260" type="curve"/>
      <point x="351" y="260"/>
      <point x="347" y="256"/>
      <point x="335" y="256" type="curve"/>
      <point x="315" y="256"/>
      <point x="308" y="308"/>
      <point x="308" y="324" type="curve"/>
      <point x="316" y="324"/>
      <point x="319" y="328"/>
      <point x="343" y="328" type="curve"/>
      <point x="367" y="328"/>
      <point x="385" y="314"/>
      <point x="385" y="290" type="curve"/>
      <point x="385" y="266"/>
      <point x="375" y="258"/>
      <point x="375" y="250" type="curve"/>
      <point x="395" y="250"/>
      <point x="415" y="220"/>
      <point x="415" y="200" type="curve"/>
      <point x="515" y="200" type="line"/>
      <point x="515" y="208"/>
      <point x="511" y="210"/>
      <point x="511" y="230" type="curve"/>
      <point x="511" y="250"/>
      <point x="515" y="252"/>
      <point x="515" y="260" type="curve"/>
      <point x="511" y="260"/>
      <point x="507" y="256"/>
      <point x="495" y="256" type="curve"/>
      <point x="483" y="256"/>
      <point x="471" y="270"/>
      <point x="471" y="290" type="curve"/>
      <point x="471" y="310"/>
      <point x="475" y="312"/>
      <point x="475" y="320" type="curve"/>
      <point x="455" y="320"/>
      <point x="415" y="344"/>
      <point x="415" y="350" type="curve"/>
      <point x="415" y="356"/>
      <point x="455" y="380"/>
      <point x="475" y="380" type="curve"/>
      <point x="475" y="388"/>
      <point x="471" y="390"/>
      <point x="471" y="410" type="curve"/>
      <point x="471" y="430"/>
      <point x="475" y="432"/>
      <point x="475" y="440" type="curve"/>
      <point x="455" y="440"/>
      <point x="415" y="480"/>
      <point x="415" y="500" type="curve"/>
      <point x="175" y="500" type="line"/>
      <point x="175" y="492"/>
      <point x="179" y="490"/>
      <point x="179" y="470" type="curve" smooth="yes"/>
      <point x="179" y="450"/>
      <point x="175" y="448"/>
      <point x="175" y="440" type="curve"/>
      <point x="179" y="440"/>
      <point x="183" y="444"/>
      <point x="195" y="444" type="curve"/>
      <point x="215" y="444"/>
      <point x="223" y="392"/>
      <point x="223" y="350" type="curve"/>
      <point x="223" y="308"/>
      <point x="215" y="256"/>
      <point x="195" y="256" type="curve"/>
      <point x="183" y="256"/>
      <point x="179" y="260"/>
      <point x="175" y="260" type="curve"/>
      <point x="175" y="252"/>
      <point x="179" y="250"/>
      <point x="179" y="230" type="curve" smooth="yes"/>
      <point x="179" y="210"/>
      <point x="175" y="208"/>
      <point x="175" y="200" type="curve"/>
      <point x="355" y="200" type="line"/>
      <point x="355" y="208"/>
      <point x="351" y="210"/>
    </contour>
    <contour>
      <point x="308" y="376" type="line"/>
      <point x="308" y="420"/>
      <point x="327" y="440"/>
      <point x="355" y="440" type="curve" smooth="yes"/>
      <point x="375" y="440"/>
      <point x="385" y="428"/>
      <point x="385" y="414" type="curve" smooth="yes"/>
      <point x="385" y="400"/>
      <point x="375" y="376"/>
      <point x="327" y="376" type="curve"/>
    </contour>
  </outline>
</glyph>
<glyph name="Eth" format="1">
  <advance width="850"/>
  <unicode hex="00D0"/>
  <outline>
    <contour>
      <point x="470" y="410" type="curve"/>
      <point x="450" y="410"/>
      <point x="440" y="404"/>
      <point x="245" y="404" type="curve"/>
      <point x="50" y="404"/>
      <point x="40" y="410"/>
      <point x="20" y="410" type="curve"/>
      <point x="20" y="400"/>
      <point x="25" y="390"/>
      <point x="25" y="375" type="curve"/>
      <point x="25" y="360"/>
      <point x="20" y="350"/>
      <point x="20" y="340" type="curve"/>
      <point x="40" y="340"/>
      <point x="50" y="345"/>
      <point x="245" y="345" type="curve"/>
      <point x="440" y="345"/>
      <point x="450" y="340"/>
      <point x="470" y="340" type="curve"/>
      <point x="470" y="350"/>
      <point x="465" y="360"/>
      <point x="465" y="375" type="curve"/>
      <point x="465" y="390"/>
      <point x="470" y="400"/>
    </contour>
    <component base="D"/>
  </outline>
</glyph>
<glyph name="germandbls" format="1">
  <advance width="850"/>
  <unicode hex="00DF"/>
  <outline>
    <contour>
      <point x="353" y="440" type="line"/>
      <point x="353" y="550"/>
      <point x="400" y="600"/>
      <point x="470" y="600" type="curve"/>
      <point x="520" y="600"/>
      <point x="545" y="570"/>
      <point x="545" y="535" type="curve"/>
      <point x="545" y="500"/>
      <point x="520" y="440"/>
      <point x="400" y="440" type="curve"/>
      <point x="400" y="420"/>
      <point x="410" y="410"/>
      <point x="410" y="375" type="curve"/>
      <point x="410" y="340"/>
      <point x="400" y="330"/>
      <point x="400" y="310" type="curve"/>
      <point x="520" y="310"/>
      <point x="545" y="250"/>
      <point x="545" y="215" type="curve"/>
      <point x="545" y="170"/>
      <point x="510" y="150"/>
      <point x="470" y="150" type="curve"/>
      <point x="440" y="150"/>
      <point x="430" y="160"/>
      <point x="420" y="160" type="curve"/>
      <point x="420" y="140"/>
      <point x="430" y="130"/>
      <point x="430" y="75" type="curve"/>
      <point x="430" y="30"/>
      <point x="420" y="20"/>
      <point x="420" y="0" type="curve"/>
      <point x="620" y="0" type="line"/>
      <point x="620" y="50"/>
      <point x="720" y="150"/>
      <point x="770" y="150" type="curve"/>
      <point x="770" y="170"/>
      <point x="760" y="180"/>
      <point x="760" y="225" type="curve"/>
      <point x="760" y="270"/>
      <point x="770" y="280"/>
      <point x="770" y="300" type="curve"/>
      <point x="720" y="300"/>
      <point x="620" y="365"/>
      <point x="620" y="375" type="curve"/>
      <point x="620" y="385"/>
      <point x="720" y="450"/>
      <point x="770" y="450" type="curve"/>
      <point x="770" y="470"/>
      <point x="760" y="480"/>
      <point x="760" y="525" type="curve"/>
      <point x="760" y="570"/>
      <point x="770" y="580"/>
      <point x="770" y="600" type="curve"/>
      <point x="720" y="600"/>
      <point x="620" y="700"/>
      <point x="620" y="750" type="curve"/>
      <point x="270" y="750" type="line"/>
      <point x="270" y="700"/>
      <point x="170" y="600"/>
      <point x="120" y="600" type="curve"/>
      <point x="120" y="580"/>
      <point x="140" y="570"/>
      <point x="140" y="375" type="curve"/>
      <point x="140" y="270"/>
      <point x="120" y="140"/>
      <point x="70" y="140" type="curve" smooth="yes"/>
      <point x="40" y="140"/>
      <point x="30" y="150"/>
      <point x="20" y="150" type="curve"/>
      <point x="20" y="130"/>
      <point x="30" y="120"/>
      <point x="30" y="75" type="curve" smooth="yes"/>
      <point x="30" y="30"/>
      <point x="20" y="20"/>
      <point x="20" y="0" type="curve"/>
      <point x="370" y="0" type="line"/>
      <point x="370" y="17"/>
      <point x="353" y="30"/>
      <point x="353" y="300" type="curve"/>
    </contour>
  </outline>
</glyph>
<glyph name="eth" format="1">
  <advance width="650"/>
  <unicode hex="00F0"/>
  <outline>
    <contour>
      <point x="485" y="778" type="curve"/>
      <point x="467" y="771"/>
      <point x="459" y="762"/>
      <point x="373" y="725" type="curve"/>
      <point x="285" y="687"/>
      <point x="273" y="689"/>
      <point x="255" y="681" type="curve"/>
      <point x="259" y="671"/>
      <point x="267" y="664"/>
      <point x="273" y="650" type="curve"/>
      <point x="279" y="637"/>
      <point x="278" y="625"/>
      <point x="282" y="616" type="curve"/>
      <point x="301" y="624"/>
      <point x="308" y="633"/>
      <point x="395" y="670" type="curve"/>
      <point x="483" y="707"/>
      <point x="494" y="706"/>
      <point x="512" y="714" type="curve"/>
      <point x="509" y="723"/>
      <point x="500" y="730"/>
      <point x="494" y="744" type="curve"/>
      <point x="487" y="759"/>
      <point x="489" y="769"/>
    </contour>
    <contour>
      <point x="283" y="742" type="curve"/>
      <point x="291" y="723"/>
      <point x="305" y="718"/>
      <point x="367" y="571" type="curve"/>
      <point x="429" y="423"/>
      <point x="424" y="410"/>
      <point x="432" y="392" type="curve"/>
      <point x="570" y="450" type="line"/>
      <point x="562" y="469"/>
      <point x="549" y="474"/>
      <point x="487" y="621" type="curve"/>
      <point x="424" y="769"/>
      <point x="429" y="782"/>
      <point x="421" y="800" type="curve"/>
      <point x="403" y="792"/>
      <point x="398" y="779"/>
      <point x="356" y="762" type="curve"/>
      <point x="315" y="745"/>
      <point x="302" y="749"/>
    </contour>
    <contour>
      <point x="420" y="0" type="line"/>
      <point x="420" y="50"/>
      <point x="520" y="150"/>
      <point x="570" y="150" type="curve"/>
      <point x="570" y="170"/>
      <point x="550" y="180"/>
      <point x="550" y="299" type="curve" smooth="yes"/>
      <point x="550" y="420"/>
      <point x="570" y="430"/>
      <point x="570" y="450" type="curve"/>
      <point x="380" y="540" type="line"/>
      <point x="360" y="540"/>
      <point x="320" y="580"/>
      <point x="320" y="600" type="curve"/>
      <point x="170" y="600" type="line"/>
      <point x="170" y="550"/>
      <point x="70" y="450"/>
      <point x="20" y="450" type="curve"/>
      <point x="20" y="150" type="line"/>
      <point x="70" y="150"/>
      <point x="170" y="50"/>
      <point x="170" y="0" type="curve"/>
    </contour>
    <contour>
      <point x="295" y="120" type="curve"/>
      <point x="240" y="120"/>
      <point x="210" y="160"/>
      <point x="210" y="300" type="curve"/>
      <point x="210" y="440"/>
      <point x="240" y="480"/>
      <point x="295" y="480" type="curve"/>
      <point x="350" y="480"/>
      <point x="380" y="440"/>
      <point x="380" y="300" type="curve"/>
      <point x="380" y="160"/>
      <point x="350" y="120"/>
    </contour>
  </outline>
</glyph>
<glyph name="oslash" format="1">
  <advance width="650"/>
  <unicode hex="00F8"/>
  <outline>
    <contour>
      <point x="90" y="0" type="curve"/>
      <point x="106" y="20"/>
      <point x="108" y="30"/>
      <point x="323" y="300" type="curve"/>
      <point x="539" y="571"/>
      <point x="554" y="580"/>
      <point x="570" y="600" type="curve"/>
      <point x="560" y="600"/>
      <point x="546" y="595"/>
      <point x="531" y="595" type="curve"/>
      <point x="516" y="595"/>
      <point x="509" y="600"/>
      <point x="499" y="600" type="curve"/>
      <point x="483" y="580"/>
      <point x="480" y="570"/>
      <point x="264" y="300" type="curve"/>
      <point x="49" y="31"/>
      <point x="36" y="20"/>
      <point x="20" y="0" type="curve"/>
      <point x="30" y="0"/>
      <point x="43" y="4"/>
      <point x="58" y="4" type="curve"/>
      <point x="73" y="4"/>
      <point x="80" y="0"/>
    </contour>
    <component base="o"/>
  </outline>
</glyph>
<glyph name="circumflex" format="1">
  <advance width="450"/>
  <unicode hex="02C6"/>
  <outline>
    <contour>
      <point x="270" y="950" type="curve"/>
      <point x="270" y="900"/>
      <point x="370" y="810"/>
      <point x="370" y="800" type="curve"/>
      <point x="330" y="800"/>
      <point x="280" y="800"/>
      <point x="240" y="800" type="curve"/>
      <point x="240" y="820"/>
      <point x="205" y="860"/>
      <point x="195" y="860" type="curve"/>
      <point x="185" y="860"/>
      <point x="150" y="820"/>
      <point x="150" y="800" type="curve"/>
      <point x="110" y="800"/>
      <point x="60" y="800"/>
      <point x="20" y="800" type="curve"/>
      <point x="20" y="810"/>
      <point x="120" y="900"/>
      <point x="120" y="950" type="curve"/>
      <point x="140" y="950"/>
      <point x="150" y="945"/>
      <point x="195" y="945" type="curve"/>
      <point x="240" y="945"/>
      <point x="250" y="950"/>
    </contour>
  </outline>
</glyph>
<glyph name="caron" format="1">
  <advance width="450"/>
  <unicode hex="02C7"/>
  <outline>
    <contour>
      <point x="270" y="800" type="curve"/>
      <point x="250" y="800"/>
      <point x="240" y="805"/>
      <point x="195" y="805" type="curve"/>
      <point x="150" y="805"/>
      <point x="140" y="800"/>
      <point x="120" y="800" type="curve"/>
      <point x="120" y="850"/>
      <point x="20" y="940"/>
      <point x="20" y="950" type="curve"/>
      <point x="60" y="950"/>
      <point x="110" y="950"/>
      <point x="150" y="950" type="curve"/>
      <point x="150" y="930"/>
      <point x="185" y="890"/>
      <point x="195" y="890" type="curve"/>
      <point x="205" y="890"/>
      <point x="240" y="930"/>
      <point x="240" y="950" type="curve"/>
      <point x="280" y="950"/>
      <point x="330" y="950"/>
      <point x="370" y="950" type="curve"/>
      <point x="370" y="940"/>
      <point x="270" y="850"/>
    </contour>
  </outline>
</glyph>
<glyph name="breve" format="1">
  <advance width="450"/>
  <unicode hex="02D8"/>
  <outline>
    <contour>
      <point x="270" y="800" type="curve"/>
      <point x="250" y="800"/>
      <point x="243" y="805"/>
      <point x="198" y="805" type="curve"/>
      <point x="153" y="805"/>
      <point x="140" y="800"/>
      <point x="120" y="800" type="curve"/>
      <point x="120" y="850"/>
      <point x="70" y="870"/>
      <point x="20" y="870" type="curve"/>
      <point x="20" y="950" type="line"/>
      <point x="120" y="950" type="line"/>
      <point x="120" y="920"/>
      <point x="140" y="900"/>
      <point x="195" y="900" type="curve"/>
      <point x="250" y="900"/>
      <point x="270" y="920"/>
      <point x="270" y="950" type="curve"/>
      <point x="370" y="950" type="line"/>
      <point x="370" y="870" type="line"/>
      <point x="320" y="870"/>
      <point x="270" y="851"/>
    </contour>
  </outline>
</glyph>
<glyph name="quoteleft" format="1">
  <advance width="250"/>
  <unicode hex="2018"/>
  <outline>
    <contour>
      <point x="170" y="670"/>
      <point x="160" y="680"/>
      <point x="160" y="725" type="curve"/>
      <point x="160" y="770"/>
      <point x="170" y="780"/>
      <point x="170" y="800" type="curve"/>
      <point x="150" y="800"/>
      <point x="140" y="790"/>
      <point x="95" y="790" type="curve"/>
      <point x="50" y="790"/>
      <point x="40" y="800"/>
      <point x="20" y="800" type="curve"/>
      <point x="20" y="780"/>
      <point x="30" y="770"/>
      <point x="30" y="725" type="curve"/>
      <point x="30" y="680"/>
      <point x="20" y="670"/>
      <point x="20" y="650" type="curve"/>
      <point x="60" y="650"/>
      <point x="150" y="550"/>
      <point x="170" y="550" type="curve"/>
      <point x="170" y="566"/>
      <point x="110" y="630"/>
      <point x="110" y="650" type="curve" smooth="yes"/>
      <point x="110" y="655"/>
      <point x="115" y="658"/>
      <point x="120" y="658" type="curve"/>
      <point x="140" y="658"/>
      <point x="150" y="650"/>
      <point x="170" y="650" type="curve"/>
    </contour>
  </outline>
</glyph>
